# xmcd
#
# Track frame offsets: 
#        150
#        16387
#        42930
#        60080
#        78347
#        94639
#        111870
#        128897
#        147510
#        161617
#        178854
#        193227
#        207887
#        228675
#        247680
#
# Disc length: 3542 seconds
#
# Revision: 6
# Processed by: cddbd v1.5.2PL0 Copyright (c) Steve Scherf et al.
# Submitted via: ExactAudioCopyFreeDBPlugin 1.0
#
DISCID=c70dd40f
DTITLE=B.B. King - Makin' Love is Good for You
DYEAR=2000
DGENRE=Blues
TTITLE0=I Got to Leave This Woman
TTITLE1=Since I Fell for You
TTITLE2=I Know
TTITLE3=Peace of Mind
TTITLE4=Monday Woman
TTITLE5=Ain't Nobody Like My Baby
TTITLE6=Makin' Love is Good for You
TTITLE7=Don't Go No Farther
TTITLE8=Actions Speak Louder Than Words
TTITLE9=What You Bet
TTITLE10=You're on Top
TTITLE11=Too Good to You Baby
TTITLE12=I'm in the Wrong Business
TTITLE13=She's My Baby
TTITLE14=It's Still Called the Blues
EXTD=YEAR: 2000 ID3G:   0
EXTT0=
EXTT1=
EXTT2=
EXTT3=
EXTT4=
EXTT5=
EXTT6=
EXTT7=
EXTT8=
EXTT9=
EXTT10=
EXTT11=
EXTT12=
EXTT13=
EXTT14=
PLAYORDER=
